<?xml version="1.0" standalone="no"?>
<!DOCTYPE svg PUBLIC "-//W3C//DTD SVG 20010904//EN"
 "http://www.w3.org/TR/2001/REC-SVG-20010904/DTD/svg10.dtd">
<svg version="1.0" xmlns="http://www.w3.org/2000/svg"
 width="328.000000pt" height="328.000000pt" viewBox="0 0 328.000000 328.000000"
 preserveAspectRatio="xMidYMid meet">
<metadata>
Created by potrace 1.11, written by Peter Selinger 2001-2013
</metadata>
<g transform="translate(0.000000,328.000000) scale(0.100000,-0.100000)"
fill="#000000" stroke="none">
<path d="M581 2189 c-238 -57 -416 -269 -426 -510 -12 -283 187 -526 469 -574
64 -11 1924 -6 1991 5 242 40 449 292 444 540 -4 212 -121 404 -300 492 -41
20 -87 39 -104 42 -16 4 -41 9 -55 12 -14 4 -459 7 -989 8 -847 1 -972 -1
-1030 -15z m2074 -139 c164 -63 273 -214 277 -385 4 -112 -36 -215 -115 -301
-55 -60 -106 -94 -182 -120 -44 -15 -101 -17 -505 -18 l-455 -1 -1 426 0 426
460 -1 c456 -2 462 -3 521 -26z"/>
<path d="M2656 1735 c-9 -9 -21 -35 -27 -58 -32 -120 -79 -152 -231 -157 -23
0 -57 -38 -53 -58 2 -9 4 -23 4 -30 2 -23 62 -40 124 -37 110 7 199 68 250
170 35 70 43 129 23 160 -19 29 -66 34 -90 10z"/>
</g>
</svg>
